<?xml version="1.0" encoding="utf-8"?>
<!-- Generator: Adobe Illustrator 15.1.0, SVG Export Plug-In . SVG Version: 6.00 Build 0)  -->
<!DOCTYPE svg PUBLIC "-//W3C//DTD SVG 1.1//EN" "http://www.w3.org/Graphics/SVG/1.1/DTD/svg11.dtd">
<svg version="1.1" id="Layer_1" xmlns="http://www.w3.org/2000/svg" xmlns:xlink="http://www.w3.org/1999/xlink" x="0px" y="0px"
	 width="300px" height="300px" viewBox="0 0 300 300" enable-background="new 0 0 300 300" xml:space="preserve">
<g>
	<path fill="#182A3B" d="M269.303,167.189l-28.026-27.473c-0.058-0.057-0.124-0.1-0.184-0.153c-0.084-0.075-0.169-0.146-0.259-0.216
		c-0.178-0.138-0.363-0.26-0.556-0.372c-0.054-0.031-0.097-0.073-0.152-0.102l-22.881-12.183c-2.435-1.298-5.464-0.374-6.763,2.063
		c-1.298,2.438-0.374,5.465,2.063,6.764l14.593,7.77L149.97,184.38l-77.004-41.006l15.273-7.82c2.458-1.259,3.43-4.271,2.172-6.729
		c-1.259-2.458-4.272-3.431-6.729-2.172l-23.716,12.143l0,0l-0.078,0.04c-0.042,0.022-0.076,0.053-0.118,0.076
		c-0.215,0.118-0.423,0.25-0.621,0.402c-0.09,0.068-0.173,0.141-0.257,0.214c-0.074,0.064-0.154,0.118-0.225,0.188L30.64,167.189
		c-1.132,1.109-1.671,2.689-1.452,4.26c0.218,1.57,1.168,2.943,2.561,3.701l25.804,14.056v49.612c0,1.855,1.028,3.559,2.669,4.424
		l87.417,46.055c0.067,0.035,0.137,0.061,0.205,0.092c0.083,0.04,0.166,0.079,0.251,0.113c0.12,0.049,0.242,0.09,0.365,0.128
		c0.083,0.026,0.164,0.056,0.247,0.077c0.138,0.036,0.277,0.061,0.417,0.085c0.07,0.012,0.14,0.029,0.211,0.038
		c0.211,0.027,0.423,0.043,0.636,0.043s0.425-0.016,0.636-0.043c0.07-0.009,0.14-0.025,0.209-0.038
		c0.141-0.023,0.28-0.049,0.418-0.085c0.084-0.021,0.165-0.051,0.248-0.077c0.122-0.039,0.243-0.079,0.362-0.127
		c0.086-0.035,0.17-0.075,0.255-0.115c0.067-0.031,0.136-0.056,0.202-0.091l87.418-46.055c1.643-0.865,2.67-2.568,2.67-4.424
		v-49.611l25.807-14.057c1.392-0.758,2.342-2.131,2.561-3.701S270.435,168.299,269.303,167.189z M63.049,149.422l78.577,41.844
		l-21.086,20.862l-78.075-42.528L63.049,149.422z M67.553,194.653l51.469,28.035c0.752,0.41,1.574,0.609,2.39,0.609
		c1.287,0,2.558-0.496,3.518-1.445l20.04-19.827v74.562l-77.417-40.786V194.653z M232.388,235.801l-77.418,40.787v-74.562
		l20.042,19.827c0.96,0.949,2.231,1.445,3.519,1.445c0.815,0,1.638-0.199,2.39-0.609l51.468-28.034V235.801z M179.401,212.129
		l-21.088-20.862l78.579-41.844l20.585,20.178L179.401,212.129z"/>
	<path fill="#182A3B" d="M131.751,77.564c0,2.761,2.239,5,5,5c7.432,0,13.479,8.023,13.481,17.884v0.005
		c0,2.569,1.947,4.718,4.504,4.973c0.168,0.017,0.335,0.025,0.5,0.025c2.355,0,4.425-1.662,4.898-4.015
		c0.065-0.325,0.099-0.655,0.099-0.986c0.003-9.862,6.049-17.885,13.477-17.885c2.762,0,5-2.239,5-5s-2.238-5-5-5
		c-7.428,0-13.474-8.022-13.477-17.882c0-0.277-0.024-0.559-0.07-0.832c-0.43-2.564-2.744-4.365-5.345-4.153
		c-2.592,0.216-4.585,2.384-4.586,4.985c-0.002,9.86-6.05,17.882-13.481,17.882C133.99,72.564,131.751,74.803,131.751,77.564z
		 M155.232,71.859c1.444,2.187,3.157,4.113,5.08,5.706c-1.923,1.593-3.635,3.518-5.08,5.705c-1.444-2.188-3.158-4.113-5.081-5.706
		C152.074,75.972,153.787,74.047,155.232,71.859z"/>
	<path fill="#182A3B" d="M78.74,55.889c13.161,0,23.872,13.797,23.876,30.755v0.007c0,2.27,1.53,4.25,3.724,4.831
		c0.424,0.112,0.853,0.166,1.276,0.166c1.767,0,3.446-0.941,4.351-2.533c0.428-0.753,0.653-1.604,0.653-2.47
		c0.003-16.959,10.71-30.756,23.867-30.756c2.761,0,5-2.239,5-5s-2.239-5-5-5c-13.157,0-23.864-13.796-23.867-30.755
		c0-0.774-0.184-1.545-0.529-2.238c-1.036-2.076-3.366-3.163-5.62-2.632c-2.258,0.532-3.854,2.55-3.854,4.87
		C102.611,32.092,91.9,45.889,78.74,45.889c-2.761,0-5,2.239-5,5S75.979,55.889,78.74,55.889z M107.616,36.415
		c3.088,6.044,7.45,11.051,12.631,14.474c-5.181,3.422-9.542,8.428-12.631,14.473c-3.089-6.045-7.452-11.051-12.634-14.473
		C100.164,47.467,104.527,42.459,107.616,36.415z"/>
	<path fill="#182A3B" d="M174.903,155.492c0.669,0.303,1.37,0.446,2.06,0.446c1.903,0,3.722-1.092,4.558-2.938
		c8.092-17.871,18.899-26.912,19.064-27.049c2.135-1.743,2.457-4.886,0.719-7.026c-1.741-2.142-4.889-2.469-7.033-0.728
		c-0.515,0.418-12.712,10.473-21.859,30.678C171.271,151.391,172.388,154.354,174.903,155.492z"/>
	<path fill="#182A3B" d="M92.348,97.315c-2.217-1.645-5.349-1.183-6.995,1.034c-1.646,2.217-1.183,5.349,1.034,6.995
		c0.229,0.17,22.99,17.27,31.512,41.137c0.73,2.045,2.655,3.32,4.709,3.32c0.558,0,1.126-0.094,1.681-0.292
		c2.601-0.929,3.956-3.79,3.028-6.39C117.786,116.425,93.382,98.083,92.348,97.315z"/>
	<path fill="#182A3B" d="M163.582,136.798c0.284,0.048,0.566,0.072,0.845,0.072c2.394,0,4.509-1.724,4.923-4.163
		c3.335-19.602,18.703-36.109,18.858-36.274c1.894-2.006,1.804-5.168-0.201-7.064c-2.006-1.898-5.17-1.81-7.068,0.197
		c-0.717,0.757-17.594,18.815-21.447,41.464C159.028,133.753,160.86,136.335,163.582,136.798z"/>
	<path fill="#182A3B" d="M139.304,126.267c0.41,0,0.828-0.051,1.244-0.157c2.675-0.685,4.289-3.409,3.604-6.084
		c-5.5-21.487-15.763-33.507-16.197-34.008c-1.809-2.088-4.966-2.312-7.053-0.505c-2.087,1.809-2.313,4.966-0.505,7.053
		c0.091,0.105,9.146,10.714,14.068,29.941C135.042,124.765,137.075,126.267,139.304,126.267z"/>
	<path fill="#182A3B" d="M142.729,139.66c2.33,0,4.217-1.887,4.217-4.219c0-2.328-1.887-4.216-4.217-4.216s-4.219,1.888-4.219,4.216
		C138.511,137.773,140.399,139.66,142.729,139.66z"/>
	<path fill="#182A3B" d="M77.863,95.787c2.33,0,4.217-1.887,4.217-4.219c0-2.327-1.887-4.216-4.217-4.216
		c-2.331,0-4.218,1.889-4.218,4.216C73.645,93.9,75.532,95.787,77.863,95.787z"/>
	<path fill="#182A3B" d="M207.722,115.465c2.331,0,4.219-1.887,4.219-4.219c0-2.326-1.888-4.215-4.219-4.215
		c-2.33,0-4.219,1.889-4.219,4.215C203.503,113.578,205.392,115.465,207.722,115.465z"/>
</g>
</svg>
